<?xml version="1.0" encoding="utf-8"?>
<!-- Generator: Adobe Illustrator 27.5.0, SVG Export Plug-In . SVG Version: 6.00 Build 0)  -->
<svg version="1.1" id="Layer_1" xmlns="http://www.w3.org/2000/svg" xmlns:xlink="http://www.w3.org/1999/xlink" x="0px" y="0px"
	 viewBox="0 0 1200 900" style="enable-background:new 0 0 1200 900;" xml:space="preserve">
<rect style="fill:#FFFFFF;" width="1200" height="900"/>
<path style="fill:#D7EFF2;" d="M1021.706,787.109c20.412-51.613,31.631-107.864,31.631-166.736
	c0-250.499-203.07-453.569-453.569-453.569c-250.499,0-453.569,203.07-453.569,453.569c0,58.873,11.218,115.123,31.631,166.736
	H1021.706z"/>
<ellipse style="fill:#B7B7B7;" cx="599.769" cy="789.174" rx="499.838" ry="12.583"/>
<g>
	<g>
		<g>
			<path style="fill:#BA554A;" d="M495.832,485.638l-7.254-2.031c-3.435,2.207-3.697,8.53-4.062,12.185
				c-0.28,2.807,0.043,5.835-1.233,8.415c-0.72,1.456-3.161,3.671-3.149,5.223c0.012,1.519,2.691,3.974,3.584,5.166
				c1.59,2.123,1.597,2.849,3.976,1.741c5.148-2.399,5.619-6.045,6.107-10.969C494.326,500.071,497.934,490.37,495.832,485.638z"/>
			<path style="fill:#E27B6D;" d="M499.12,475.773l-8.898-0.387c-2.812,1.989-2.777,6.944-3.086,10.078
				c-0.645,6.554,4.552,8.053,4.634,14.101c0.038,2.877-0.871,16.248,2.611,12.476c3.004-3.254,4.367-12.074,4.352-18.086
				C498.725,490.769,499.748,476.241,499.12,475.773z"/>
		</g>
		<path style="fill:#6B1F3A;" d="M498.665,483.529c4.574-12.392,9.492-56.906,6.749-86.829c-2.174-23.721-1.212-87.173-1.42-96.79
			c-0.729-33.532-11.065-34.154-13.435-35.227l-7.158,156.515l2.635,61.675L498.665,483.529z"/>
	</g>
	<g>
		<path style="fill:#893650;" d="M496.412,359.136c-0.174,1.149-0.342,2.309-0.499,3.464c-1.724,12.406-0.112,25.782-0.861,38.688
			c-1.41,24.274-4.82,48.28-9.753,70.905c-8.177,1.903-16.521,2.791-24.883,2.925c-0.186,0.006-0.371,0.012-0.557,0.012
			c-17.124,0.22-34.33-2.681-50.404-6.406c-2.153-43.435-5.977-80.382-22.138-121.193c-2.002-5.048-3.783-9.778-5.368-14.211
			c-9.714-27.175-11.832-43.15-9.203-53.247c3.702-14.194,16.793-16.77,31.399-22.486c7.277-2.849,9.215,0.081,13.347-6.383
			l52.226,9.285c23.598,5.61,28.24,0.58,30.755,23.792C502.042,298.748,499.65,337.927,496.412,359.136z"/>
		<path style="fill:#6B1F3A;" d="M495.053,401.288c-1.41,24.274-2.611,48.742-4.352,69.631c-8.177,1.903-21.922,5.806-30.284,5.94
			c-0.186,0.006-0.371,0.012-0.557,0.012c-17.124,0.22-47.087-7.449-63.161-11.174c-2.153-43.435,6.78-75.614-9.381-116.426
			c-2.002-5.049-3.783-9.778-5.368-14.211c-9.714-27.175-11.832-43.15-9.203-53.247c-0.273,3.801-0.267,7.631-0.064,11.327
			c0.737,13.556,8.408,35.937,14.635,48.007c5.507,10.672,26.292,56.567,36.558,62.671c21.471,12.766,11.757-16.172,23.792-10.445
			C465.564,401.88,476.083,398.886,495.053,401.288z"/>
	</g>
	<g>
		<path style="fill:#6B1F3A;" d="M460.417,475.118c-0.186,0.006-0.371,0.012-0.557,0.012c3.058-62.549,3.697-189.383-11.229-203.408
			l0.395-0.418c10.956,10.288,12.958,77.753,13.172,117.043C462.379,421.047,461.537,452.475,460.417,475.118z"/>
		<g>
			<g>
				<path style="fill:#E27B6D;" d="M467.325,282.291c-5.199-4.596-15-8.861-19.614-9.842c-7.573,1.456-15.784,8.379-22.022,12.905
					c-0.186-0.325-0.378-0.644-0.563-0.957c-9.366-15.633-13.48-20.809-17.408-26.305l4.63-1.271c6.018-4.532,8.2-6.25,9.865-10.486
					c0.487-1.248,0.888-2.519,1.207-3.807c2.815-11.374-0.458-24.273-0.272-34.405c0.069-3.766,0.615-7.149,2.129-9.934
					c6,2.35,16.364,14.327,22.892,15.998c3.592,0.923,7.202,1.689,10.712,2.223c-0.441,3.975-0.604,8.35-0.406,12.766
					c0.023,0.493,0.047,0.986,0.076,1.474c0.337,6.313,0.963,12.366,1.741,18.099c0.07,0.528,0.139,1.056,0.215,1.578
					c0.069,0.517,0.191,1.277,0.348,2.188c0.755,4.515,2.275,12.691,2.286,12.703C465.079,267.215,467.813,272.373,467.325,282.291z
					"/>
				<path style="fill:#BA554A;" d="M460.292,248.75c-3.986,1.05-7.758,1.108-12.233,0.528c-7.387-0.957-16.271-1.665-22.846-5.588
					c-0.621-0.372-1.219-0.755-1.793-1.161c2.815-11.374-0.458-24.273-0.272-34.405l35.403,22.527
					C458.888,236.964,459.514,243.017,460.292,248.75z"/>
				<g>
					<path style="fill:#E27B6D;" d="M479.555,209.815c-0.1-5.574-2.569-15.134-2.923-19.607
						c-3.11-39.314-21.876-33.088-21.876-33.088c-7.832-0.569-17.05,0.803-22.701,6.813c-3.997,4.252-19.876-3.022-21.444,2.664
						c-4.223,15.304,3.123,41.593,11.765,55.355c5.611,8.934,9.805,15.932,19.962,22.526c7.192,4.668,24.269,9.219,29.254,1.437
						C476.811,237.772,479.723,219.178,479.555,209.815z"/>
					<g>
						<path style="fill:#BA554A;" d="M449.162,203.013c-0.29,0.148-0.602,0.292-0.932,0.435c-2.576,1.11-6.293,2.068-9.173,2.717
							c-2.465,0.554-4.183,2.507-4.183,2.507c-0.743-3.529,0.48-7.792,2.733-9.599c2.665-2.138,6.587-3.115,9.77-3.036
							c0.275,0.009,1.373,0.285,1.632,0.308C449.331,198.541,448.381,201.064,449.162,203.013z"/>
						<path style="fill:#FFFFFF;" d="M449.617,206.47c-0.291,0.148-0.603,0.291-0.932,0.434c-2.577,1.109-6.293,2.068-9.174,2.717
							c-2.465,0.554-4.316,0.883-4.316,0.883c-0.744-3.529,0.614-6.168,2.867-7.974c2.665-2.139,6.587-3.114,9.77-3.037
							c0.274,0.009,0.541,0.023,0.801,0.045C448.954,201.735,448.837,204.52,449.617,206.47z"/>
						<path style="fill:#191615;" d="M448.668,203.374c0.127,1.231,0.126,2.422,0.017,3.53c-2.577,1.109-6.293,2.068-9.174,2.717
							c-0.673-1.466-1.155-3.239-1.352-5.171c-0.067-0.655-0.098-1.295-0.097-1.92c2.665-2.139,6.587-3.114,9.77-3.037
							C448.235,200.669,448.525,201.977,448.668,203.374z"/>
						<path style="fill:#FFFFFF;" d="M442.048,204.829c0.087,0.849-0.166,1.572-0.565,1.612c-0.4,0.041-0.794-0.615-0.881-1.465
							c-0.087-0.849,0.166-1.571,0.566-1.612C441.566,203.326,441.961,203.98,442.048,204.829z"/>
					</g>
					<g>
						<path style="fill:#BA554A;" d="M476.284,196.082c-0.202,0.14-0.421,0.274-0.651,0.407c-1.8,1.029-4.416,1.875-6.446,2.438
							c-1.738,0.479-2.902,2.376-2.902,2.376c-0.634-3.541,0.111-7.754,1.662-9.489c1.833-2.054,4.595-2.911,6.861-2.74
							c0.195,0.018,0.985,0.325,1.17,0.356C476.271,191.629,475.67,194.116,476.284,196.082z"/>
						<path style="fill:#FFFFFF;" d="M476.71,199.542c-0.203,0.139-0.42,0.273-0.651,0.406c-1.8,1.03-4.416,1.876-6.446,2.438
							c-1.738,0.479-3.046,0.753-3.046,0.753c-0.633-3.541,0.255-6.131,1.806-7.867c1.833-2.053,4.595-2.91,6.86-2.738
							c0.196,0.017,0.386,0.038,0.573,0.068C476.097,194.803,476.096,197.576,476.71,199.542z"/>
						<path style="fill:#191615;" d="M475.943,196.428c0.126,1.231,0.162,2.418,0.116,3.52c-1.8,1.03-4.416,1.876-6.446,2.438
							c-0.523-1.482-0.917-3.264-1.115-5.195c-0.067-0.655-0.109-1.295-0.125-1.918c1.833-2.053,4.595-2.91,6.86-2.738
							C475.554,193.717,475.8,195.031,475.943,196.428z"/>
						<path style="fill:#FFFFFF;" d="M471.275,197.684c0.087,0.85-0.071,1.562-0.355,1.591c-0.283,0.029-0.582-0.636-0.669-1.486
							c-0.087-0.85,0.072-1.561,0.355-1.59C470.889,196.169,471.188,196.834,471.275,197.684z"/>
					</g>
					<path style="fill:#351615;" d="M448.682,190.351c-1.163-0.866-16.646,2.8-19.419,5l0.236,5.493
						c2.154-0.236,9.983-2.715,9.983-2.715s1.336,0.083,2.238-3.547c0.466,0.971-0.228,2.555,0.091,3.779
						c2.36,0.09,5.529-0.911,7.858-0.885C449.789,196.28,449.606,191.037,448.682,190.351z"/>
					<path style="fill:#351615;" d="M478.307,187.28c-0.061-1.147-0.104-2.299-0.186-3.447c-3.497-0.547-15.348,2.796-15.633,4.066
						c-0.232,1.034,2.614,5.898,3.374,6.937c1.553-1.052,4.252-1.539,5.791-2.664c-0.48-1.256-1.845-2.396-2.081-3.488
						c2.663,2.913,3.515,2.249,3.515,2.249s2.965-0.531,5.412-1.104C478.416,188.981,478.353,188.131,478.307,187.28z"/>
					<path style="fill:#BA554A;" d="M469.023,217.921c-0.028-0.319-0.079-0.612-0.131-0.906c-0.049-0.295-0.113-0.583-0.181-0.87
						c-0.065-0.287-0.136-0.572-0.218-0.854c-0.082-0.282-0.156-0.566-0.25-0.843c-0.179-0.558-0.373-1.11-0.593-1.654
						c-0.103-0.274-0.223-0.543-0.342-0.812c-0.118-0.269-0.24-0.538-0.375-0.801c-0.133-0.264-0.262-0.53-0.411-0.789
						c-0.146-0.259-0.287-0.52-0.449-0.774c-0.161-0.254-0.317-0.51-0.496-0.757c-0.175-0.248-0.353-0.495-0.55-0.734
						c-0.383-0.482-0.815-0.945-1.324-1.363c-0.256-0.208-0.538-0.402-0.862-0.561c-0.158-0.08-0.332-0.15-0.526-0.191
						c-0.186-0.041-0.408-0.059-0.597-0.005c0.361,0.075,0.534,0.308,0.71,0.526c0.167,0.227,0.292,0.48,0.417,0.731
						c0.244,0.506,0.441,1.037,0.64,1.566l0.286,0.801l0.279,0.804l0.556,1.612l0.565,1.612l0.58,1.609
						c0.093,0.269,0.201,0.534,0.297,0.802l0.301,0.799c0,0,0.51,0.966,0.151,1.148l-1.085,0.544
						c-0.723,0.366-1.45,0.735-2.173,1.115c-0.361,0.188-0.72,0.384-1.081,0.578c-0.356,0.197-0.715,0.395-1.068,0.6
						c-0.353,0.207-0.705,0.416-1.052,0.63c-0.171,0.111-0.343,0.218-0.511,0.338c-0.169,0.111-0.332,0.234-0.485,0.359
						c0.386-0.157,0.773-0.29,1.165-0.421c0.388-0.134,0.779-0.263,1.171-0.389c0.782-0.255,1.562-0.514,2.342-0.778
						c0.779-0.263,1.556-0.533,2.334-0.81l1.166-0.429c0.388-0.144,0.778-0.301,1.183-0.469l0.675-0.278L469.023,217.921z"/>
					<g>
						<path style="fill:#BA554A;" d="M473.531,223.746c-0.669,1.415-1.293,2.988-1.983,4.531c-1.802,4.044-4.003,7.875-8.284,8.03
							c-4.481,0.164-10.585-3.57-14.167-8.883c0,0,0.841-0.106,2.242-0.285C456.102,226.53,467.321,225.03,473.531,223.746z"/>
						<path style="fill:#FFFFFF;" d="M473.531,223.746c-0.669,1.415-1.293,2.988-1.983,4.531
							c-4.716,1.164-13.458,2.617-15.442,1.909c-1.592-0.564-3.286-1.802-4.767-3.046
							C456.102,226.53,467.321,225.03,473.531,223.746z"/>
					</g>
					<path style="fill:#351615;" d="M477.079,150.065c-0.192,1.577-0.653,3.292-1.409,5.082
						c-5.506,12.977-39.396,16.84-43.469,17.07c-1.803,0.1-9.538-7.798-10.911-6.704c0,0,14.347,13.051,1.286,30.932
						c-1.102,1.507,5.466,21.985,4.642,25.573c-1.616,0.466-12.058-6.956-13.405-5.597c-2.549-3.111-3.882-7.334-6.46-10.566
						c-3.705-4.657-8.154-9.116-10.998-14.368c-2.249-4.169-3.54-6.94-3.788-10.916c-0.061-0.931-0.062-1.925-0.006-3.024
						c0.445-8.584,7.065-19.386,15.666-19.478c-0.309-3.809,0.946-9.199,3.889-11.915c5.092-4.698,14.095-6.88,20.793-7.309
						c6.763-0.436,13.182,0.942,19.757,2.322c4.682,0.981,9.224,2.461,13.926,3.367c3.051,0.588,7.224,1.509,10.086,0.676
						C477.152,146.553,477.303,148.212,477.079,150.065z"/>
					<path style="fill:#1C0B0B;" d="M477.079,150.065c-0.192,1.577-0.653,3.292-1.409,5.082
						c-5.506,12.977-39.396,16.84-43.469,17.07c-1.803,0.1-9.538-7.798-10.911-6.704c0,0,14.347,13.051,1.286,30.932
						c-1.102,1.507,8.901,16.211,4.642,25.573c-1.616,0.466-12.058-6.956-13.405-5.597c-2.549-3.111-3.882-7.334-6.46-10.566
						c-3.705-4.657-8.154-9.116-10.998-14.368c-2.249-4.169-3.54-6.94-3.788-10.916c0.979,2.116,2.279,4.082,3.991,5.777
						c2.351,2.328,7.891,5.27,11.373,4.659c0.388-3.823,0.434-8.8-0.604-12.423c3.085,2.237,4.632,5.49,7.167,7.922
						c3.426-2.971,3.744-10.543,3.537-14.618c-0.25-4.819-2.476-9.37-2.478-13.951c17.338,9.538,41.911,6.321,58.065-4.736
						C474.971,152.277,476.085,151.21,477.079,150.065z"/>
					<g>
						<path style="fill:#E27B6D;" d="M425.229,214.37c3.383,5.469,3.122,11.759-0.581,14.05c-3.704,2.291-9.448-0.284-12.83-5.752
							c-3.383-5.468-3.122-11.757,0.582-14.048C416.102,206.327,421.847,208.903,425.229,214.37z"/>
						<path style="fill:#BA554A;" d="M412.633,217.295c0,0-0.061-0.069-0.173-0.198c-0.055-0.066-0.123-0.147-0.194-0.25
							c-0.073-0.101-0.161-0.22-0.237-0.362c-0.17-0.277-0.345-0.638-0.464-1.093c-0.119-0.453-0.195-1.008-0.087-1.645
							c0.055-0.319,0.154-0.656,0.306-1c0.159-0.344,0.387-0.686,0.674-1.008c0.572-0.651,1.436-1.152,2.339-1.373
							c0.451-0.119,0.91-0.165,1.358-0.163c0.449-0.004,0.887,0.05,1.305,0.141c0.423,0.085,0.82,0.219,1.205,0.369l0.036,0.013
							l0.058,0.026l0.015,0.008l0.063,0.03l0.126,0.063l0.251,0.124c0.086,0.046,0.165,0.074,0.256,0.135l0.269,0.174
							c0.376,0.232,0.662,0.491,0.961,0.745c0.149,0.127,0.273,0.272,0.408,0.409c0.131,0.139,0.268,0.273,0.379,0.422
							c0.118,0.146,0.234,0.291,0.35,0.436c0.116,0.145,0.209,0.301,0.313,0.45c0.211,0.297,0.389,0.605,0.56,0.911
							c0.178,0.302,0.316,0.616,0.464,0.918c0.136,0.307,0.259,0.611,0.378,0.908c0.102,0.305,0.209,0.596,0.295,0.884
							c0.078,0.292,0.158,0.572,0.224,0.844c0.059,0.275,0.122,0.534,0.167,0.787c0.038,0.255,0.072,0.496,0.105,0.723
							c0.05,0.458,0.079,0.859,0.077,1.195c0.014,0.331-0.014,0.598-0.025,0.778c-0.015,0.18-0.023,0.276-0.023,0.276
							s-0.024-0.09-0.07-0.257c-0.039-0.168-0.104-0.41-0.2-0.713c-0.083-0.306-0.223-0.663-0.361-1.077
							c-0.081-0.202-0.166-0.418-0.256-0.645c-0.094-0.224-0.195-0.459-0.3-0.704c-0.11-0.242-0.233-0.49-0.355-0.747
							c-0.131-0.253-0.267-0.513-0.405-0.782c-0.154-0.261-0.298-0.535-0.462-0.803c-0.177-0.261-0.325-0.547-0.52-0.809
							c-0.364-0.538-0.773-1.069-1.224-1.565c-0.106-0.132-0.232-0.243-0.352-0.361c-0.125-0.113-0.235-0.241-0.365-0.347
							l-0.388-0.321c-0.128-0.118-0.262-0.178-0.39-0.271l-0.191-0.135c-0.057-0.045-0.158-0.086-0.236-0.129l-0.25-0.128
							l-0.125-0.064l-0.062-0.031l-0.016-0.008c-0.039-0.017,0.043,0.019,0.032,0.015l-0.008-0.004l-0.029-0.012
							c-0.32-0.125-0.636-0.254-0.965-0.328c-0.653-0.168-1.329-0.217-1.955-0.104c-0.624,0.113-1.201,0.379-1.634,0.778
							c-0.442,0.39-0.745,0.891-0.917,1.389c-0.162,0.5-0.213,0.991-0.202,1.422c0.02,0.43,0.074,0.812,0.157,1.114
							c0.079,0.302,0.15,0.541,0.215,0.702C412.601,217.208,412.633,217.295,412.633,217.295z"/>
					</g>
				</g>
			</g>
			<g>
				<path style="fill:#6B1F3A;" d="M450.441,273.917c-0.836,0.011-1.683,0.11-2.536,0.273c-7.573,1.456-15.784,8.379-22.022,12.905
					c-0.493,0.36-2.503,1.888-2.974,2.213c-1.004-5.896-13.031-27.136-17.708-31.413l17.205-9.818
					c5.014,0.783,20.014,18.383,26.809,23.919C449.773,272.449,449.999,273.656,450.441,273.917z"/>
				<path style="fill:#A85269;" d="M450.247,272.176c-0.836,0.012-1.683,0.11-2.536,0.273c-7.573,1.456-15.784,8.379-22.022,12.905
					c-0.493,0.36-0.975,0.702-1.445,1.027c-1.004-5.896-14.559-25.95-19.236-30.227l17.206-9.819
					c5.014,0.783,19.741,19.219,26.536,24.755C449.307,271.544,449.806,271.915,450.247,272.176z"/>
				<path style="fill:#6B1F3A;" d="M470.856,287.987c-0.586-0.865-1.398-1.741-2.373-2.6c-4.544-4.016-16.399-10.567-19.364-12.163
					v-1.677c0.633-0.783,1.59-2.089,2.246-2.971c0.099-0.128,0.186-0.244,0.267-0.354c0.58-0.777,1.137-1.677,1.677-2.652
					c3.191-4.271,6.661-8.791,8.704-9.957c0.226-0.133,0.436-0.209,0.638-0.226l10.021,5.223l0.14,0.069
					c-0.453,0.517-0.749,1.184-0.928,1.973c-0.058,0.226-0.099,0.458-0.134,0.702C470.996,268.507,473.781,278.017,470.856,287.987z
					"/>
				<path style="fill:#A85269;" d="M473.096,260.023c-0.157,0.185-0.302,0.377-0.424,0.586c-0.371,0.586-0.621,1.271-0.789,2.043
					c-0.058,0.226-0.099,0.458-0.134,0.702c-0.737,4.66,0.697,12.163-2.054,21.534c-0.585-0.865-1.398-1.741-2.373-2.6
					c-4.846-4.282-15.012-8.588-18.204-9.865c-0.232-0.093-0.43-0.174-0.58-0.232c0.104-0.075,0.313-0.313,0.58-0.644
					c0.633-0.783,1.59-2.089,2.246-2.971c0.099-0.128,0.186-0.244,0.267-0.354c0.58-0.777,1.137-1.677,1.677-2.652
					c2.71-4.892,4.92-11.553,7.544-13.056c0.226-0.133,0.435-0.209,0.638-0.226L473.096,260.023z"/>
			</g>
		</g>
		<g>
			<path style="fill:#6B1F3A;" d="M451.15,290.082c0,1.282-1.04,2.321-2.321,2.321c-1.282,0-2.322-1.039-2.322-2.321
				c0-1.282,1.04-2.321,2.322-2.321C450.11,287.761,451.15,288.8,451.15,290.082z"/>
			<path style="fill:#6B1F3A;" d="M454.051,344.048c0,1.282-1.039,2.321-2.321,2.321c-1.282,0-2.321-1.039-2.321-2.321
				c0-1.282,1.04-2.321,2.321-2.321C453.012,341.727,454.051,342.767,454.051,344.048z"/>
		</g>
	</g>
	<g>
		<g>
			<path style="fill:#E27B6D;" d="M471.926,742.343c-0.357,4.313-2.791,11.686-4.04,16.884c-0.861,3.584-1.057,16.282-3.386,18.535
				c-8.621,8.336-8.174-27.603-7.967-31.511L471.926,742.343z"/>
			<path style="fill:#080F11;" d="M456.523,770.419l7.633-0.754c3.688-4.524,5.254,0.863,6.754,3.117
				c1.781,2.679,5.31,4.701,7.936,6.284c4.628,2.791,16.157,5.056,14.458,12.718c-9.361,0.759-28.78,0.589-38.451-0.896
				c-4.162-0.638-0.797-4.059,0.283-10.148C455.879,776.552,455.602,774.486,456.523,770.419z"/>
		</g>
		<g>
			<path style="fill:#E27B6D;" d="M396.636,741.248c-0.128,4.327-2.171,11.831-3.143,17.095c-0.671,3.629-0.198,16.32-2.405,18.706
				c-8.168,8.83-9.615-27.08-9.615-30.994L396.636,741.248z"/>
			<path style="fill:#080F11;" d="M386.186,767.288c5.375-0.569,6.376,4.162,7.329,6.409c1.133,2.671,2.975,3.488,4.733,5.064
				c3.097,2.776,10.988,5.013,9.528,12.667c-6.502,0.777-22.79,1.357-29.425-0.104c-2.854-0.629-1.01-2.671,1.517-9.348
				C381.359,778.036,381.132,767.821,386.186,767.288z"/>
		</g>
		<g>
			<g>
				<path style="fill:#102328;" d="M451.47,459.691c-1.853,0.143-3.722,0.263-5.6,0.362c-0.289,9.29-0.601,19.312-0.924,29.808
					c-1.56,50.923-3.344,112.604-3.779,152.248c-0.448,40.753,7.822,87.994,13.953,114.943h17.658
					c0.576-12.784,1.746-31.263,3.302-53.208c4.537-64.036,10.657-178.982,16.126-250.716
					C478.842,456.493,465.154,458.635,451.47,459.691z"/>
				<path style="fill:#080F11;" d="M472.779,757.052c0.576-12.784,1.746-31.263,3.302-53.208c-3.692-2.674-7.284-5.549-10.837-8.446
					c-5.178-4.218-11.414-6.988-13.398-14.198c-1.447-5.252-0.35-12.217-0.597-17.788c-0.508-11.461-1.294-23.442-1.264-34.84
					c0.065-26.085,0.632-52.361,0.632-78.617c0-13.76,0.691-27.268,1.256-40.634c0.351-8.031,0.595-9.117,6.274-14.186
					c4.809-4.293,9.242-8.799,13.673-13.539c-8.684,2.119-15.28,9-24.322,8.51c-0.851-0.043-1.699-0.127-2.551-0.245
					c-1.56,50.923-3.344,112.604-3.779,152.248c-0.448,40.753,7.822,87.994,13.953,114.943H472.779z"/>
			</g>
			<path style="fill:#102328;" d="M451.47,459.691c-18.14,1.4-37.569,0.849-55.166-4.823c-0.808,10.945-1.935,23.571-3.326,37.221
				c-0.246,2.443-0.504,4.917-0.773,7.421c-4.035,38.063-9.936,82.768-16.552,120.583c-7.406,42.333-2.026,104.639,2.054,136.956
				h17.966c9.157-54.257,38.974-209.937,57.343-297.492C452.502,459.6,451.987,459.652,451.47,459.691z"/>
		</g>
	</g>
	<g>
		<g>
			<g>
				<path style="fill:#D1604A;" d="M652.109,388.957c-5.078,7.758-15.894,13.944-24.054,16.979
					c-10.485,3.9-53.125,11.971-67.267,13.695l-5.292-10.491c3.18-1.428,6.789-3.354,10.515-5.478
					c1.027-0.586,2.071-1.19,3.11-1.799c8.263-4.851,16.602-10.265,21.477-13.056c7.712-4.41,23.24-15.337,31.619-18.25
					c1.138-0.395,2.438-0.778,3.848-1.132c5.298-1.341,12.145-2.292,17.867-2.083c2.268,0.075,4.369,0.337,6.122,0.829
					C657.668,370.312,656.119,382.835,652.109,388.957z"/>
			</g>
			<path style="fill:#BA3927;" d="M647.131,392.038c-4.48,5.083-5.865,6.579-9.028,9.028c-9.418,7.283-23.472,9.028-34.015,10.123
				c-11.056,1.148-20.873,4.48-30.854,6.917c1.027-0.586,2.071-1.19,3.11-1.799c8.264-4.851,16.602-6.654,21.477-9.445
				c7.712-4.41,23.24-4.504,31.619-7.417c1.138-0.395,2.438-0.778,3.848-1.132C638.586,396.973,641.409,391.829,647.131,392.038z"/>
			<g>
				<path style="fill:#FFFFFF;" d="M690.535,336.719c-2.199,10.074-10.34,21.297-15.366,30.86
					c-5.263,10.004-10.741,20.275-20.664,27.309c-0.755,0.534-1.474,1.015-2.165,1.439c-9.499,5.896-13.393,1.985-20.722-6.186
					c-6.743-7.52-12.053-15.291-15.912-24.25c5.722-2.402,10.358-4.19,14.165-7.074c3.505-2.652,6.308-6.233,8.599-12.07
					c4.033-10.254,5.507-20.513,8.971-30.9c3-8.971,8.397-32.316,12.36-41.259c3.79-8.548,12.383-12.511,16.974-12.511
					L690.535,336.719z"/>
				<path style="fill:#EAEAEA;" d="M652.341,396.326c-9.499,5.896-13.393,1.985-20.722-6.186
					c-6.743-7.52-12.053-15.291-15.912-24.25c5.722-2.402,10.358-4.19,14.165-7.074c1.793,6.36,4.358,12.366,8.13,18.453
					C641.252,382.516,646.307,391.673,652.341,396.326z"/>
			</g>
		</g>
		<g>
			<g>
				<g>
					<g>
						<path style="fill:#D1604A;" d="M699.311,744.369c0.362,4.137,2.829,11.211,4.096,16.198
							c0.872,3.438,1.072,15.621,3.433,17.782c8.74,7.997,8.286-26.483,8.078-30.232L699.311,744.369z"/>
						<path style="fill:#171F26;" d="M713.817,771.304l-7.739-0.724c-3.74-4.34-5.328,0.828-6.847,2.991
							c-1.806,2.57-5.385,4.51-8.046,6.029c-4.692,2.678-16.381,4.851-14.658,12.202c9.491,0.727,29.179,0.564,38.984-0.86
							c4.22-0.612,0.809-3.895-0.287-9.736C714.47,777.188,714.75,775.207,713.817,771.304z"/>
					</g>
					<g>
						<path style="fill:#D1604A;" d="M775.646,743.318c0.13,4.151,2.201,11.351,3.187,16.401c0.68,3.481,0.2,15.657,2.438,17.946
							c8.282,8.471,9.748-25.98,9.748-29.735L775.646,743.318z"/>
						<path style="fill:#171F26;" d="M785.13,768.3c-5.45-0.545-6.464,3.994-7.431,6.149c-1.148,2.563-3.016,3.347-4.798,4.858
							c-3.141,2.664-11.14,4.81-9.661,12.153c6.593,0.745,23.106,1.302,29.833-0.1c2.894-0.603,1.025-2.562-1.537-8.968
							C790.024,778.612,790.255,768.813,785.13,768.3z"/>
					</g>
					<g>
						<g>
							<path style="fill:#302524;" d="M725.643,470.914c0.316,9.636,0.663,20.161,1.023,31.225
								c1.581,48.855,3.39,108.032,3.831,146.066c0.455,39.098-7.93,84.421-14.147,110.276h-17.903
								c-0.584-12.265-1.77-29.994-3.348-51.049c-5.114-68.314-12.215-197.033-18.184-261.976L725.643,470.914z"/>
							<path style="fill:#1C1615;" d="M698.447,758.48c-0.584-12.265-1.77-29.994-3.348-51.049
								c3.744-2.565,7.386-5.323,10.988-8.103c5.25-4.047,11.573-6.704,13.584-13.622c1.466-5.039,0.354-11.721,0.605-17.065
								c0.515-10.996,1.312-22.491,1.282-33.425c-0.066-25.026-0.641-50.235-0.641-75.425c0-13.202-0.701-26.16-1.273-38.984
								c-0.356-7.705-0.603-8.747-6.362-13.61c-4.875-4.119-9.37-8.442-13.863-12.988c8.804,2.033,15.492,8.635,24.66,8.164
								c0.863-0.041,1.723-0.122,2.587-0.235c1.581,48.855,3.39,108.032,3.831,146.066c0.455,39.098-7.93,84.421-14.147,110.276
								H698.447z"/>
						</g>
						<path style="fill:#302524;" d="M794.837,758.478h-18.215c-9.76-54.727-42.674-217.01-60.913-297.815l58.969-13.631
							c0.482,13.492,2.153,33.808,4.678,57.245c0.249,2.344,0.51,4.717,0.783,7.12c4.091,36.517,10.073,79.406,16.782,115.686
							C804.429,667.698,798.974,727.473,794.837,758.478z"/>
					</g>
				</g>
				<path style="fill:#20576D;" d="M658.511,315.484c1.634,20.495,7.874,39.786,11.895,59.939c0.042,0.221,0.089,0.447,0.132,0.668
					c0.683,3.448,1.293,6.923,1.808,10.434c2.933,20.148,4.342,66.799,7.606,86.989c0.594,3.68,93.049,1.004,94.5-6.355
					c1.246-6.313,0.431-6.198,0.894-14.976c0.726-13.609,0.715-29.515,0.605-45.668c-0.163-22.876-0.531-46.251,0.678-64.307
					c0.394-5.924,0.962-11.275,1.761-15.848c2.266-12.952,3.08-31.181,10.392-43.839c0.236-0.405,0.478-0.809,0.73-1.209
					c0.615-0.988,1.283-1.94,1.992-2.843c1.031-1.314,2.166-2.539,3.412-3.654c0.21-0.184,0.421-0.368,0.636-0.546
					c-0.636-0.836-1.377-1.677-2.208-2.518c-1.451-1.472-3.175-2.938-5.061-4.363c-0.263-0.195-0.526-0.394-0.794-0.584
					c-0.037-0.026-0.074-0.052-0.11-0.079c-0.205-0.158-0.421-0.31-0.631-0.457c-0.136-0.1-0.273-0.2-0.41-0.295
					c-0.515-0.362-1.036-0.715-1.566-1.067c-5.955-3.979-12.752-7.422-17.725-9.404c-3.275-1.303-6.634-2.507-9.951-3.8
					c-0.347-0.131-0.689-0.263-1.03-0.405c-2.076-0.82-4.132-1.687-6.129-2.644c-1.645-0.783-5.809-2.654-8.179-4.231
					c-1.362-0.91-2.129-1.719-1.498-2.171l-40.527,9.351l-4.457,1.025c0,0,0.005,0,0,0.005l-1.472,0.337
					c-2.071,0.694-4.405,1.409-6.855,2.192c-8.736,2.812-18.902,6.57-23.632,13.967c-0.605,0.952-1.125,1.96-1.541,3.038
					C657.376,283.615,656.923,295.63,658.511,315.484z"/>
				<path style="fill:#D1604A;" d="M692.888,271.777c-0.104,30.658,6.738,84.996,7.464,82.443
					c11.574-40.512,23.121-63.582,32.889-77.765c10.336-15.009,18.678-20.064,22.946-25.297l-9.133-4.368
					c-5.714-4.899-7.787-6.754-9.18-11.09c-5.361-16.673,5.336-36.764,0-48.239c-6.139,1.961-17.245,13.258-23.864,14.512
					c-3.645,0.695-7.29,1.227-10.832,1.537c0.19,3.999,0.075,8.374-0.405,12.77c-0.81,7.397-2.013,14.41-3.367,20.981
					c-0.623,3.026-3.558,14.679-3.574,14.691C693.737,253.849,692.919,261.477,692.888,271.777z"/>
				<g>
					<path style="fill:#D1604A;" d="M678.642,194.545c-0.109-5.507,4.704-10.869,4.887-15.299
						c1.602-38.93,18.237-34.233,18.237-34.233c7.711-0.855,16.863,0.155,22.668,5.878c4.105,4.048,6.413,12.014,8.175,17.569
						c4.74,14.952,9.764,28.225,1.745,42.136c-5.205,9.029-9.303,19.088-19.115,22.865c-7.905,3.043-21.564,7.345-26.777-0.152
						C683.005,225.464,678.826,203.794,678.642,194.545z"/>
					<path style="fill:#382F2E;" d="M685.062,150.265c0.647,1.138,1.424,1.935,2.351,2.222c7.834,2.429,42.56,3.256,41.417,8.653
						c-3.449,16.293,5.59,13.417,3.853,19.465c-2.708,9.434-5.213,20.382-2.589,26.255c2.247,5.031,5.373-8.433,6.893-3.159
						l8.114-6.085c3.431-8.664,8.932-20.263,10.712-30.328c0.8,0.628,1.542,1.355,2.204,2.214
						c1.663-3.292,0.151-11.971-2.249-14.752c2.639,0.334,4.83,1.694,7.214,2.538c0.071,0.029,0.144,0.051,0.215,0.076
						c-1.451-2.033-2.848-4.279-4.546-6.009c-1.762-1.795-4.285-2.765-6.13-4.307c1.194-1.485,3.239-2.464,4.928-3.001
						c-3.016-0.314-6.701,0.954-9.739,1.178c-4.693-3.415-11.316-5.606-16.608-7.445c-15.608-5.422-32.225-7.827-48.841-8.114
						C681.847,133.156,682.147,145.15,685.062,150.265z"/>
					<g>
						<path style="fill:#BA3927;" d="M709.003,190.112c0.292,0.135,0.605,0.265,0.937,0.395c2.584,0.999,6.289,1.807,9.158,2.34
							c2.455,0.455,4.223,2.32,4.223,2.32c0.602-3.512-0.765-7.675-3.058-9.376c-2.71-2.011-6.619-2.828-9.759-2.632
							c-0.271,0.019-1.345,0.333-1.6,0.366C708.669,185.703,709.702,188.159,709.003,190.112z"/>
						<path style="fill:#FFFFFF;" d="M708.683,193.543c0.292,0.135,0.606,0.265,0.936,0.394c2.585,0.998,6.29,1.807,9.159,2.34
							c2.454,0.455,4.294,0.71,4.294,0.71c0.603-3.512-0.837-6.066-3.129-7.766c-2.711-2.012-6.62-2.828-9.76-2.633
							c-0.27,0.019-0.533,0.042-0.788,0.074C709.16,188.843,709.382,191.589,708.683,193.543z"/>
						<path style="fill:#382F2E;" d="M709.505,190.451c-0.079,1.22-0.034,2.396,0.115,3.486c2.585,0.998,6.29,1.807,9.159,2.34
							c0.61-1.473,1.019-3.241,1.143-5.156c0.041-0.649,0.048-1.282,0.023-1.9c-2.711-2.012-6.62-2.828-9.76-2.633
							C709.831,187.763,709.594,189.067,709.505,190.451z"/>
						<path style="fill:#FFFFFF;" d="M716.095,191.64c-0.055,0.842,0.223,1.546,0.618,1.571c0.397,0.025,0.761-0.637,0.815-1.479
							c0.055-0.842-0.223-1.545-0.619-1.571C716.514,190.137,716.149,190.798,716.095,191.64z"/>
					</g>
					<g>
						<path style="fill:#BA3927;" d="M681.967,184.284c0.205,0.131,0.425,0.254,0.658,0.377c1.816,0.949,4.43,1.686,6.455,2.165
							c1.734,0.408,2.954,2.238,2.954,2.238c0.493-3.52-0.399-7.651-1.995-9.306c-1.886-1.959-4.644-2.702-6.876-2.449
							c-0.191,0.025-0.961,0.358-1.142,0.395C681.814,179.887,682.5,182.32,681.967,184.284z"/>
						<path style="fill:#FFFFFF;" d="M681.677,187.715c0.205,0.13,0.425,0.254,0.658,0.376c1.815,0.949,4.43,1.687,6.455,2.167
							c1.733,0.408,3.035,0.63,3.035,0.63c0.491-3.52-0.481-6.044-2.077-7.699c-1.886-1.958-4.645-2.701-6.876-2.447
							c-0.193,0.025-0.38,0.052-0.562,0.089C682.105,183.014,682.209,185.751,681.677,187.715z"/>
						<path style="fill:#382F2E;" d="M682.318,184.613c-0.079,1.22-0.07,2.393,0.017,3.479c1.815,0.949,4.43,1.687,6.455,2.167
							c0.461-1.483,0.783-3.257,0.906-5.171c0.042-0.649,0.058-1.282,0.052-1.898c-1.886-1.958-4.645-2.701-6.876-2.447
							C682.6,181.922,682.406,183.228,682.318,184.613z"/>
						<path style="fill:#FFFFFF;" d="M686.972,185.678c-0.054,0.842,0.129,1.539,0.409,1.557c0.28,0.018,0.551-0.65,0.605-1.492
							c0.055-0.842-0.129-1.539-0.409-1.557C687.297,184.168,687.027,184.835,686.972,185.678z"/>
					</g>
					<path style="fill:#211B1B;" d="M707.259,179.163c0.972-1.053,16.675-0.324,19.769,1.306l0.774,5.376
						c-2.134,0.164-10.188-0.811-10.188-0.811s-1.282,0.325-2.821-3.036c-0.274,1.028,0.689,2.439,0.603,3.686
						c-2.275,0.519-5.535,0.127-7.791,0.577C707.268,185.122,706.488,179.998,707.259,179.163z"/>
					<path style="fill:#211B1B;" d="M679.843,171.108c0.987-0.732,11.78,4.351,13.475,6.767l-1.021,5.334
						c-1.544-0.44-6.905-3.62-6.905-3.62s-0.993-0.05-1.093-3.678c-0.492,0.901-0.228,2.515-0.649,3.677
						c-1.748-0.142-3.918-1.426-5.63-1.627C678.115,176.783,679.059,171.688,679.843,171.108z"/>
					<path style="fill:#211B1B;" d="M685.062,150.265c0.647,1.138,1.424,1.935,2.351,2.222c7.834,2.429,42.56,3.256,41.417,8.653
						c-3.449,16.293,5.59,13.417,3.853,19.465c-2.708,9.434-5.213,20.382-2.589,26.255c2.247,5.031,5.373-8.433,6.893-3.159
						l8.114-6.085c3.431-8.664,8.932-20.263,10.712-30.328c0.8,0.628,1.542,1.355,2.204,2.214
						c1.663-3.292,0.151-11.971-2.249-14.752c2.639,0.334,4.83,1.694,7.214,2.538c-1.771-1.27-3.389-2.812-5.588-3.667
						c-2.61-1.015-5.717-2.299-8.496-2.262c2.828,3.088,3.892,12.089,0.453,15.183c-2.165-3.958-4.785-6.646-8.217-9.484
						c0.646,2.596-1.295,10.993-4.897,10.827c-0.643-4.052-1.63-7.972-4.251-11.451c-2.039-2.704-5.202-3.34-8.474-3.542
						c-8.769-0.542-17.3-0.136-25.985-0.671C693.341,151.965,689.143,151.323,685.062,150.265z"/>
					<path style="fill:#211B1B;" d="M680.604,210.048c3.279-0.986,8.656-1.695,12.265-0.835c7.201,1.716,12.89,8.83,19.607,11.734
						c4.873,2.106,7.729-1.122,10.588-5.016c1.907-2.597,4.262-5.125,5.633-8.056c0.954-2.041,1.489-4.558,2.063-6.449l4.268,9.755
						c-1.532,3.854-8.265,18.588-10.32,22.139c-1.971,3.407-23.015,9.697-24.854,9.93c-3.745,0.476-7.954-1.894-11.358-3.441
						c-1.532-0.696-3.497-1.395-4.588-2.733C682.65,235.532,680.633,213.578,680.604,210.048z"/>
					<path style="fill:#BA3927;" d="M688.369,209.038c-0.03-0.415-0.032-0.803-0.034-1.195c-0.005-0.39,0.007-0.777,0.022-1.162
						c0.012-0.385,0.029-0.77,0.059-1.153c0.029-0.383,0.051-0.767,0.093-1.149c0.074-0.765,0.165-1.526,0.283-2.286
						c0.052-0.381,0.121-0.759,0.188-1.138c0.067-0.378,0.138-0.757,0.222-1.133c0.082-0.377,0.16-0.754,0.259-1.129
						c0.097-0.374,0.187-0.749,0.3-1.122c0.112-0.372,0.217-0.745,0.347-1.113c0.127-0.369,0.256-0.738,0.404-1.102
						c0.287-0.73,0.626-1.45,1.047-2.136c0.212-0.342,0.453-0.674,0.74-0.974c0.14-0.15,0.297-0.292,0.478-0.403
						c0.173-0.109,0.387-0.198,0.581-0.187c-0.339,0.206-0.467,0.554-0.599,0.885c-0.121,0.34-0.198,0.7-0.275,1.057
						c-0.148,0.717-0.244,1.453-0.344,2.187l-0.135,1.106l-0.128,1.108l-0.254,2.221l-0.262,2.224l-0.278,2.224
						c-0.042,0.371-0.101,0.741-0.147,1.111l-0.15,1.109c0,0-0.324,1.384,0.059,1.508l1.154,0.364
						c0.77,0.248,1.546,0.497,2.318,0.763c0.386,0.131,0.771,0.271,1.156,0.409c0.384,0.143,0.768,0.286,1.149,0.441
						c0.381,0.156,0.761,0.316,1.138,0.484c0.186,0.09,0.373,0.175,0.557,0.275c0.185,0.091,0.366,0.198,0.537,0.311
						c-0.404-0.084-0.805-0.136-1.21-0.184c-0.402-0.053-0.806-0.1-1.211-0.142c-0.809-0.089-1.615-0.182-2.423-0.282
						c-0.806-0.1-1.612-0.209-2.419-0.326l-1.214-0.193c-0.405-0.066-0.812-0.149-1.237-0.24l-0.708-0.15L688.369,209.038z"/>
					<g>
						<path style="fill:#D1604A;" d="M733.057,200.431c-3.136,5.525-2.643,11.725,1.099,13.849
							c3.743,2.124,9.317-0.634,12.452-6.159c3.136-5.524,2.643-11.725-1.099-13.848
							C741.767,192.149,736.192,194.906,733.057,200.431z"/>
						<path style="fill:#BA3927;" d="M745.603,202.848c0,0,0.056-0.071,0.162-0.202c0.052-0.067,0.116-0.149,0.182-0.254
							c0.069-0.103,0.151-0.223,0.22-0.366c0.157-0.28,0.316-0.643,0.417-1.096c0.101-0.452,0.155-1.002,0.025-1.628
							c-0.066-0.312-0.176-0.641-0.34-0.975c-0.169-0.334-0.407-0.663-0.703-0.97c-0.589-0.621-1.462-1.083-2.361-1.268
							c-0.45-0.101-0.905-0.129-1.347-0.11c-0.444,0.013-0.873,0.082-1.283,0.188c-0.415,0.1-0.801,0.246-1.176,0.409l-0.035,0.015
							l-0.056,0.028l-0.015,0.008l-0.061,0.032l-0.122,0.067l-0.244,0.132c-0.083,0.048-0.16,0.079-0.247,0.143l-0.26,0.182
							c-0.362,0.243-0.635,0.51-0.922,0.772c-0.142,0.131-0.259,0.279-0.387,0.419c-0.124,0.142-0.253,0.28-0.358,0.431
							c-0.111,0.148-0.221,0.296-0.33,0.443c-0.108,0.147-0.195,0.305-0.292,0.456c-0.198,0.301-0.362,0.612-0.519,0.921
							c-0.164,0.305-0.289,0.62-0.424,0.924c-0.122,0.309-0.232,0.613-0.339,0.911c-0.089,0.306-0.183,0.596-0.258,0.884
							c-0.066,0.291-0.135,0.571-0.189,0.842c-0.048,0.274-0.1,0.532-0.136,0.784c-0.027,0.253-0.052,0.492-0.076,0.718
							c-0.033,0.454-0.046,0.851-0.032,1.182c-0.001,0.328,0.037,0.59,0.055,0.767c0.021,0.177,0.033,0.271,0.033,0.271
							s0.02-0.089,0.059-0.257c0.032-0.168,0.087-0.409,0.17-0.711c0.071-0.305,0.195-0.662,0.316-1.076
							c0.072-0.203,0.148-0.418,0.229-0.646c0.084-0.225,0.175-0.46,0.269-0.706c0.099-0.243,0.212-0.493,0.323-0.751
							c0.12-0.255,0.244-0.517,0.371-0.787c0.142-0.264,0.274-0.539,0.426-0.811c0.164-0.265,0.301-0.553,0.483-0.818
							c0.339-0.545,0.723-1.084,1.151-1.591c0.1-0.134,0.219-0.248,0.333-0.37c0.119-0.116,0.223-0.247,0.347-0.357l0.371-0.332
							c0.123-0.121,0.252-0.185,0.375-0.283l0.184-0.141c0.055-0.046,0.153-0.091,0.229-0.136l0.242-0.136l0.122-0.068l0.059-0.032
							l0.016-0.009c0.037-0.018-0.043,0.021-0.032,0.016l0.008-0.004l0.029-0.013c0.311-0.136,0.617-0.275,0.941-0.36
							c0.638-0.19,1.303-0.264,1.926-0.176c0.62,0.088,1.2,0.329,1.642,0.707c0.451,0.368,0.769,0.852,0.957,1.337
							c0.179,0.488,0.247,0.971,0.252,1.396c-0.004,0.425-0.043,0.805-0.113,1.105c-0.068,0.301-0.127,0.54-0.187,0.701
							C745.63,202.761,745.603,202.848,745.603,202.848z"/>
					</g>
					<g>
						<path style="fill:#BA3927;" d="M685.48,215.266c0.317,0.937,0.582,1.963,0.899,2.98c0.827,2.663,1.981,5.249,5.177,5.895
							c3.345,0.677,8.416-0.78,11.799-3.51c0,0-0.618-0.173-1.647-0.461C698.208,219.188,689.976,216.839,685.48,215.266z"/>
						<path style="fill:#FFFFFF;" d="M685.48,215.266c0.317,0.937,0.582,1.963,0.899,2.98c3.391,1.307,9.768,3.309,11.351,3.139
							c1.27-0.133,2.703-0.66,3.978-1.215C698.208,219.188,689.976,216.839,685.48,215.266z"/>
					</g>
				</g>
				<path style="fill:#EAEAEA;" d="M692.888,271.777c-0.104,30.658,6.738,84.996,7.464,82.443
					c11.574-40.512,23.121-63.582,32.889-77.765c-1.791-1.85-3.442-3.558-4.673-4.673c-6.104-5.528-7.64-5.087-15.224-4.702
					C702.786,267.615,697.537,266.785,692.888,271.777z"/>
				<g>
					<path style="fill:#FFFFFF;" d="M744.426,243.443l13.698,8.934c-4.934,3.971-22.795,25.523-24.172,31.34
						c-6.718-5.318-16.264-15.122-25.049-15.822C714.935,264.777,738.957,243.944,744.426,243.443z"/>
					<path style="fill:#FFFFFF;" d="M695.833,247.98l-9.927,4.765c3.024,3.971,0,14.294,2.78,26.603
						c4.116-5.318,17.598-10.358,22.981-11.058C707.972,265.174,699.185,248.482,695.833,247.98z"/>
				</g>
				<path style="fill:#1B4A59;" d="M670.406,375.423c0.042,0.221,0.089,0.447,0.132,0.668c0.683,3.448,1.293,6.923,1.808,10.434
					c2.933,20.148,4.342,66.799,7.606,86.989c0.594,3.68,95.643,1.378,97.093-5.981c1.246-6.313-0.985-44.865-1.095-61.017
					c-0.163-22.876-0.531-46.251,0.678-64.307c0.394-5.924,0.962-11.275,1.761-15.848c2.266-12.952,3.08-31.181,10.392-43.839
					c0.236-0.405,0.478-0.809,0.73-1.209c0.615-0.988,1.283-1.94,1.992-2.843c1.031-1.314,2.166-2.539,3.412-3.654l-1.572-3.064
					l-0.299-0.589c-1.709-1.614-3.559-3.08-5.556-4.368l-0.184-1.314c-0.163,0.268-0.352,0.531-0.557,0.789
					c-0.136-0.1-0.273-0.2-0.41-0.295c-0.515-0.362-1.036-0.715-1.566-1.067c-27.796,17.446-24.684,62.904-36.243,88.229
					c-14.108,30.887-49.158,32.469-77.695,22.435C670.69,375.523,670.548,375.476,670.406,375.423z"/>
				<path style="fill:#EAEAEA;" d="M777.654,345.851c0.215-7.648,1.382-14.445,2.36-20.043c2.26-12.952,1.556-30.661,8.768-43.286
					c0.236-0.405,0.478-0.809,0.73-1.209l-2.024-14.508v-0.01l-0.184-1.314c-0.163,0.268-0.352,0.531-0.557,0.789
					c-0.01,0.01-0.021,0.026-0.032,0.036c-2.16,2.686-6.034,4.447-8.489,7.349c-0.1,0.121-0.2,0.242-0.289,0.363
					c-0.941,1.162-1.766,2.481-2.507,3.858c-0.016,0.021-0.032,0.047-0.037,0.068c-1.388,2.591-2.481,5.409-3.438,7.916
					c-1.125,2.949-2.266,5.95-3.354,8.989c-2.644,7.365-5.071,14.924-6.176,22.445C755.757,362.673,775.95,406.515,777.654,345.851z
					"/>
			</g>
			<g>
				<g>
					<g>
						<g>
							<path style="fill:#D1604A;" d="M790.074,471.315l0.138,0.089C790.185,470.834,790.136,470.884,790.074,471.315z"/>
							<path style="fill:#D1604A;" d="M779.206,466.875c-10.832,7.35-14.314,13.154-14.314,13.154s9.239,25.866,15.088,25.533
								c2.249-6.185,5.435-12.25,6.677-18.468c0.626-3.134,1.208-6.172,1.575-9.434c0.163-1.447,0.491-6.627,0.68-7.925
								L779.206,466.875z"/>
						</g>
						<path style="fill:#D1604A;" d="M822.168,417.06c-3.964,10.463-25.939,47.88-33.947,59.665l-11.385-2.919
							c1.294-4.254,2.455-9.58,3.487-15.047c1.782-9.418,3.192-19.26,4.3-24.767c1.753-8.71,3.743-27.592,7.062-35.815
							c0.453-1.12,1.022-2.35,1.683-3.644c3.459-6.807,9.476-15.383,14.838-18.888c6.621-4.323,15.03,5.083,17.003,12.128
							C827.71,396.704,825.25,408.919,822.168,417.06z"/>
						<path style="fill:#1C1615;" d="M779.355,504.277c-4.445-0.731-8.339-8.67-9.819-11.89c-1.312-2.843-2.646-5.78-3.581-8.878
							c-0.539-1.794-0.749-6.293-1.524-8.509h-4.588c0.12,14.1,6.777,30.707,20.295,36.398
							C779.865,508.995,779.604,506.622,779.355,504.277z"/>
					</g>
					<path style="fill:#BA3927;" d="M798.87,413.103c-1.724,6.992-3.697,14.06-6.076,20.89c-3.14,9.023-7.497,17.003-12.471,24.767
						c1.782-9.418,3.192-19.26,4.3-24.767c1.753-8.71,3.743-27.592,7.062-35.815c0.453-1.12,1.022-2.35,1.683-3.644h9.435
						C803.599,395.114,799.775,409.424,798.87,413.103z"/>
				</g>
				<g>
					<path style="fill:#FFFFFF;" d="M827.698,398.474c-7.701,3.255-17.821,3.662-26.514,2.24c-3.331-0.551-11.048-1.793-13.34-4.282
						c-2.194-2.379-1.358-7.648-1.201-11.292c0.011-0.342,0.023-0.673,0.023-0.981c0-16.614-4.073-32.067-9.012-47.717
						c-0.337-1.068-0.679-2.135-1.027-3.215c-0.482-1.509-0.975-3.023-1.468-4.538c-4.456-13.642-9.307-24.749-6.557-37.22
						c1.033-4.706,3.151-9.604,6.789-14.907c0.006-0.018,0.023-0.041,0.041-0.058c0.76-1.114,1.596-2.246,2.507-3.4
						c0.406-0.528,0.835-1.062,1.282-1.602c3.047-3.691,7.445-5.228,7.445-5.228c0.018,0.012,0.035,0.017,0.047,0.029
						c0.226,0.122,0.447,0.238,0.667,0.371c0.035,0.012,0.07,0.035,0.11,0.058c1.996,1.138,3.848,2.432,5.554,3.853
						c15.952,13.289,20.072,37.922,24.934,55.417c5.136,18.477,6.726,36.303,8.815,55.069c0.134,1.201,0.267,2.408,0.406,3.621
						C827.716,389.206,828.011,393.785,827.698,398.474z"/>
					<path style="fill:#EAEAEA;" d="M827.698,398.474c-7.701,3.255-17.821,3.662-26.514,2.24c-3.331-0.551-11.048-1.793-13.34-4.282
						c-2.194-2.379-1.358-7.648-1.201-11.292c2.635,0.185,6.209,1.004,8.617,1.242c4.41,0.435,7.84,0.221,12.186-0.423
						c7.021-1.039,13.004-2.408,19.347-4.886c0.134,1.201,0.267,2.408,0.406,3.621C827.716,389.206,828.011,393.785,827.698,398.474
						z"/>
				</g>
			</g>
		</g>
		<g>
			<g>
				<path style="fill:#D1604A;" d="M550.032,410.908c-3.502,1.679-6.732,6.685-8.712,9.986c-3.325,5.541-7.955,15.966,0.622,18.83
					c5.203,1.737,10.855,0.5,15.198-2.778c8.461-6.385,9.486-17.563,19.22-23.014L550.032,410.908z"/>
				<path style="fill:#D1604A;" d="M573.169,406.777c-0.116,0.55,0.951,0.757-0.078,0.896c-12.268-2.271-21.831-8.946-33.292-2.482
					c-6.393,3.605-7.161,2.644-5.829,8.824c0.53,2.457,0.365,9.388,4.461,6.395c1.669-1.219,4.811-5.56,4.791-7.413
					c8.39,11.783,27.022,8.018,37.103,0.118L573.169,406.777z"/>
				<path style="fill:#E27B6D;" d="M567.527,420.983c-3.14-2.328-9.145-4.137-12.962-5.377c-4.491-1.459-9.437-3.716-14.237-3.863
					c-3.383-0.103-16.362,5.209-17.44,3.594l-7.693,14.443c4.812,4.158,12.852,7.396,19.366,10.614
					c2.822,1.394,6.65,2.995,9.811,3.547c2.41,0.422,8.893-0.624,4.077-3.816c2.393,0.255,8.812,1.835,10.324-0.894
					c1.53-2.761-2.813-5.098-4.121-5.561c3.249,0.363,8.194,2.949,10.807-0.327c2.363-2.962,0.127-5.572-2.744-6.507
					C567.25,427.691,573.052,425.078,567.527,420.983z"/>
				<path style="fill:#D1604A;" d="M533.5,410.162c-0.534,2.367-0.196,5.159-0.57,7.622c-0.36,2.362-0.878,4.758,2.254,4.236
					c4.671-0.778,6.088-7.911,6.536-11.121L533.5,410.162z"/>
				<path style="fill:#D1604A;" d="M555.839,435.085c-1.516-5.232-7.439,0.58-9.16,3.184c0.734-2.128,4.828-10.973,0.08-11.129
					c-2.959-0.097-5.866,6.772-7.405,8.594c1.012-2.592,5.101-11.361,0.333-11.954c-3.886-0.484-6.393,7.004-7.267,8.837
					c0.555-2.219,4.06-11.669-1.96-9.253c-3.569,1.431-6.581,10.331-6.14,13.206c0,0,3.012,3.431,8.681,3.935
					c4.829,0.43,9.42,5.569,14.823,4.118C551.109,443.74,557.059,439.295,555.839,435.085z"/>
			</g>
			<g>
				<path style="fill:#893650;" d="M517.696,431.706l9.015-16.412c-4.525-2.002-68.379-34.601-77.721-37.783
					c-1.274-0.433-2.723-0.848-4.295-1.231c-8.251-2.035-15.01,4.505-21.862,6.475c-8.457,2.436-1.066,14.233,3.365,21.064
					C433.356,414.853,501.942,429.883,517.696,431.706z"/>
			</g>
			<g>
				<path style="fill:#6B1F3A;" d="M443.614,371.989c0,0-24.876-49.776-30.272-65.072c0.331,17.481,21.963,63.449,21.963,63.449
					s-4.389,3.605-9.005,10.694c3.999-0.08,6.634-4.819,10.627-4.864c-3.256,2.804-6.427,7.375-8.84,11.043
					c6.254-4.834,11.321-10.512,19.271-6.96c6.94,3.1,46.585,20.791,61.676,26.374C497.516,398.865,443.614,371.989,443.614,371.989
					z"/>
			</g>
		</g>
	</g>
</g>
</svg>
