<?xml version="1.0" encoding="UTF-8"?>
<svg id="Layer_2" data-name="Layer 2" xmlns="http://www.w3.org/2000/svg" viewBox="0 0 44.93 44.93">
  <defs>
    <style>
      .cls-1 {
        fill: #fff;
      }
    </style>
  </defs>
  <g id="Layer_1-2" data-name="Layer 1">
    <g>
      <path class="cls-1" d="m22.46,44.93c-3.01,0-6.02.02-9.03,0-6.15-.04-11.42-4.12-12.96-10.07-.29-1.1-.43-2.28-.44-3.42C-.01,25.46,0,19.49.01,13.52.03,7.33,4.06,2.07,10.05.48c1.09-.29,2.24-.44,3.37-.45,6.03-.04,12.07-.04,18.1-.01,6.75.03,12.39,4.99,13.27,11.68.18,1.35.12,2.74.12,4.11,0,.81-.71,1.43-1.51,1.42-.79-.01-1.44-.65-1.47-1.46-.04-1.18.01-2.37-.1-3.55-.42-4.42-4.04-8.27-8.44-9.01-.7-.12-1.42-.18-2.14-.18-5.86-.01-11.73-.01-17.59,0-5.32,0-9.54,3.51-10.51,8.75-.11.58-.15,1.18-.15,1.77-.01,5.96-.01,11.91,0,17.87,0,5.25,3.7,9.57,8.88,10.41.6.1,1.21.12,1.82.12,5.85,0,11.7,0,17.54,0,5.36,0,9.61-3.54,10.55-8.82.11-.61.13-1.24.13-1.86.01-2.67,0-5.33,0-8,0-.8.56-1.42,1.31-1.52.75-.09,1.46.41,1.64,1.16.04.16.04.34.04.51,0,2.67.01,5.33,0,8-.03,6.83-4.9,12.43-11.66,13.4-.68.1-1.37.12-2.05.12-2.92.01-5.83,0-8.75,0Z"/>
      <path class="cls-1" d="m17.22,11.99c2,0,3.99,0,5.99,0,.79,0,1.42.58,1.5,1.33.08.75-.43,1.46-1.18,1.62-.15.03-.31.03-.46.03-3.88,0-7.76,0-11.65,0-.99,0-1.67-.62-1.67-1.5,0-.89.68-1.49,1.67-1.49,1.93,0,3.87,0,5.8,0Z"/>
      <path class="cls-1" d="m17.23,20.97c1.92,0,3.84,0,5.75,0,1.04,0,1.72.59,1.73,1.48,0,.9-.68,1.51-1.71,1.51-3.88,0-7.76,0-11.65,0-1.17,0-1.92-1.03-1.51-2.05.24-.59.77-.93,1.48-.94,1.96,0,3.93,0,5.89,0Z"/>
      <path class="cls-1" d="m27.33,29.96c1.81,0,3.62,0,5.43,0,1,0,1.68.6,1.68,1.49,0,.88-.67,1.51-1.66,1.51-3.63,0-7.27,0-10.9,0-.98,0-1.67-.63-1.66-1.51,0-.88.68-1.48,1.68-1.48,1.81,0,3.62,0,5.43,0Z"/>
      <path class="cls-1" d="m32.2,11.99c.5,0,1-.01,1.5,0,.84.02,1.49.67,1.5,1.48,0,.81-.63,1.49-1.47,1.5-1.01.02-2.03.02-3.04,0-.84-.02-1.48-.69-1.47-1.5,0-.82.65-1.46,1.5-1.48.5-.01,1,0,1.5,0Z"/>
      <path class="cls-1" d="m12.72,29.96c.5,0,1,0,1.5,0,.85.02,1.5.66,1.51,1.47.01.83-.64,1.5-1.51,1.51-1,.01-2,.02-2.99,0-.84-.01-1.48-.68-1.48-1.5,0-.82.64-1.47,1.49-1.49.5-.01,1,0,1.5,0Z"/>
    </g>
  </g>
</svg>